<?xml version="1.0" encoding="utf-8"?>
<!-- Generator: Adobe Illustrator 19.0.0, SVG Export Plug-In . SVG Version: 6.00 Build 0)  -->
<svg version="1.1" id="Layer_1" xmlns="http://www.w3.org/2000/svg" xmlns:xlink="http://www.w3.org/1999/xlink" x="0px" y="0px"
	 viewBox="0 0 101.7 94" style="enable-background:new 0 0 101.7 94;" xml:space="preserve">
<style type="text/css">
	.st0{fill:#1A1A1A;}
	.st1{fill:#0071BC;}
	.st2{fill:#FCEE21;}
	.st3{fill:#00A99D;}
</style>
<polygon id="XMLID_1_" class="st0" points="10.7,0 0,94 101.7,94 90.7,0 "/>
<path id="XMLID_35_" class="st1" d="M10.7,0v80h80V0H10.7z M32.7,80h-5V28.1l5,8.8V80z M54.7,62.1l-4,6.5l-4-6.6V0h8V62.1z M73.7,80
	h-5V36.9l5-8.8V80z"/>
<polygon id="XMLID_228_" class="st2" points="-105.3,123.8 -57.3,210 -149.3,210 -149.3,127.1 "/>
<rect id="XMLID_230_" x="267.7" y="-32" class="st3" width="72" height="72"/>
<polygon id="XMLID_229_" points="282.8,-6.8 287.2,1.2 287.2,40.3 282.8,40.3 "/>
<polygon id="XMLID_59_" points="324.7,-6.8 320.3,1.2 320.3,40.3 324.7,40.3 "/>
<polygon id="XMLID_58_" points="303.8,30 303.8,30 300.4,24 300.4,-32.2 307.1,-32.2 307.1,24.1 "/>
</svg>
