<?xml version="1.0" encoding="utf-8"?>
<!-- Generator: Adobe Illustrator 19.0.0, SVG Export Plug-In . SVG Version: 6.00 Build 0)  -->
<svg version="1.1" id="Layer_1" xmlns="http://www.w3.org/2000/svg" xmlns:xlink="http://www.w3.org/1999/xlink" x="0px" y="0px"
	 viewBox="0 0 204.3 219.4" style="enable-background:new 0 0 204.3 219.4;" xml:space="preserve">
<style type="text/css">
	.st0{fill:#0071BC;}
	.st1{fill:#FCEE21;}
	.st2{fill:#00A99D;}
	.st3{fill:#666666;}
	.st4{fill:url(#XMLID_3_);}
	.st5{fill:url(#XMLID_4_);}
</style>
<rect id="XMLID_241_" x="-245" y="418.4" class="st0" width="94" height="94"/>
<polygon id="XMLID_240_" points="-227.9,451.3 -222.1,461.7 -222.1,512.6 -227.9,512.6 "/>
<polygon id="XMLID_239_" points="-170.8,451.3 -176.5,461.7 -176.5,512.6 -170.8,512.6 "/>
<polygon id="XMLID_232_" points="-208.2,483.5 -208.2,483.5 -208.2,474.5 -173.3,410.4 -165.8,414.5 -200.7,478.7 "/>
<polygon id="XMLID_228_" class="st1" points="-538.9,159.2 -491,245.4 -583,245.4 -583,162.5 "/>
<rect id="XMLID_230_" x="386" y="-110.6" class="st2" width="72" height="72"/>
<polygon id="XMLID_229_" points="401.2,-85.5 405.6,-77.4 405.6,-38.3 401.2,-38.3 "/>
<polygon id="XMLID_59_" points="443,-85.5 438.6,-77.4 438.6,-38.3 443,-38.3 "/>
<polygon id="XMLID_58_" points="422.1,-48.6 422.1,-48.6 418.8,-54.6 418.8,-110.8 425.4,-110.8 425.4,-54.6 "/>
<path id="XMLID_233_" class="st0" d="M-391.2,127.7l38.2-21.1v8.8l-27.9,14.7l0,0l27.9,15.3v8.1l-38.2-21.1V127.7z"/>
<path id="XMLID_238_" class="st0" d="M-528.8,86.4l-38.2,21.1v-8.1l27.9-15.3l0,0l-27.9-14.7v-8.8l38.2,21.1V86.4z"/>
<path id="XMLID_235_" class="st0" d="M-352.9,162l23-63.9h9.6l-23.1,63.9H-352.9z"/>
<text id="XMLID_42_" transform="matrix(1 0 0 1 53.0017 434.5792)" style="font-family:'NeoSansStd-Bold'; font-size:89.8767px;">&lt;/&gt;</text>
<polygon id="XMLID_52_" points="-356.9,-110.8 -425.4,-110.8 -431.1,-142 -351.3,-142 "/>
<polygon id="XMLID_49_" class="st0" points="95,0 73,50.4 95,50.4 "/>
<polygon id="XMLID_116_" class="st0" points="109,0 131,50.4 109,50.4 "/>
<rect id="XMLID_91_" x="-25" y="-202.6" class="st0" width="94" height="94"/>
<polygon id="XMLID_90_" points="-5.2,-169.4 0.5,-158.9 0.5,-108 -5.2,-108 "/>
<polygon id="XMLID_89_" points="49.2,-169.4 43.5,-158.9 43.5,-108 49.2,-108 "/>
<polygon id="XMLID_88_" points="22,-121.5 22,-121.5 17.7,-129.3 17.7,-202.3 26.3,-202.3 26.3,-129.2 "/>
<polygon id="XMLID_96_" class="st0" points="243,-47.6 243,-68.5 236,-80.6 236,-194.6 169,-194.6 169,-47.6 202,-47.6 202,-143 
	211,-126.7 211,-47.6 "/>
<polygon id="XMLID_95_" class="st0" points="247,-47.6 247,-68.5 254,-80.6 254,-194.6 321,-194.6 321,-47.6 288,-47.6 288,-143 
	279,-126.7 279,-47.6 "/>
<polygon id="XMLID_114_" class="st0" points="35,103 0,182.4 35,182.4 "/>
<polygon id="XMLID_113_" class="st0" points="169,103 204.3,182.4 169,182.4 "/>
<polygon id="XMLID_111_" class="st0" points="108,58.4 108,154.8 102,165.1 96,154.8 96,58.4 39,58.4 39,182.4 67,182.4 67,102.1 
	75,115.9 75,182.4 102,182.4 129,182.4 129,115.9 137,102.1 137,182.4 165,182.4 165,58.4 "/>
<polygon id="XMLID_98_" class="st3" points="64.3,192.7 41.7,192.7 39.1,182.4 66.9,182.4 "/>
<polygon id="XMLID_94_" class="st3" points="162.4,192.7 139.7,192.7 137.1,182.4 165,182.4 "/>
<polygon id="XMLID_63_" class="st0" points="-290,244.1 -331.7,338.4 -290,338.4 "/>
<polygon id="XMLID_62_" class="st0" points="-132,244.1 -90,338.4 -132,338.4 "/>
<polygon id="XMLID_61_" class="st0" points="-204,191.4 -204,305.4 -211,317.5 -218,305.4 -218,191.4 -285,191.4 -285,338.4 
	-252,338.4 -252,243 -243,259.3 -243,338.4 -211,338.4 -179,338.4 -179,259.3 -170,243 -170,338.4 -137,338.4 -137,191.4 "/>
<polygon id="XMLID_60_" class="st3" points="-255,350.6 -281.9,350.6 -285,338.4 -252,338.4 "/>
<polygon id="XMLID_57_" class="st3" points="-140.1,350.6 -166.9,350.6 -170,338.4 -137,338.4 "/>
<polygon id="XMLID_56_" class="st0" points="-222.3,186.4 -211.3,176.4 -200.3,186.4 -187.2,186.4 -211.3,165.7 -235.5,186.4 "/>
<polygon id="XMLID_41_" class="st0" points="106.1,-60.9 116.3,-50 106.6,-38.9 106.9,-25.8 127,-50.3 105.8,-74 "/>
<polygon id="XMLID_55_" class="st0" points="399,248.1 357.3,342.4 399,342.4 "/>
<polygon id="XMLID_54_" class="st0" points="557,248.1 599,342.4 557,342.4 "/>
<polygon id="XMLID_53_" class="st0" points="485,195.4 485,309.4 478,321.5 471,309.4 471,195.4 404,195.4 404,342.4 437,342.4 
	437,247 446,263.3 446,342.4 478,342.4 510,342.4 510,263.3 519,247 519,342.4 552,342.4 552,195.4 "/>
<polygon id="XMLID_51_" class="st3" points="434,354.6 407.1,354.6 404,342.4 437,342.4 "/>
<polygon id="XMLID_47_" class="st3" points="548.9,354.6 522.1,354.6 519,342.4 552,342.4 "/>
<polygon id="XMLID_46_" class="st0" points="470,176.9 460,165.8 470,154.9 470,141.8 449.3,165.8 470,190 "/>
<polygon id="XMLID_44_" class="st0" points="486.1,155.1 496.3,166 486.6,177.1 486.9,190.2 507,165.7 485.8,142 "/>
<radialGradient id="XMLID_3_" cx="53.1682" cy="241.3847" r="16.5936" gradientUnits="userSpaceOnUse">
	<stop  offset="0" style="stop-color:#FFFF00"/>
	<stop  offset="1" style="stop-color:#F15A24"/>
</radialGradient>
<polygon id="XMLID_14_" class="st4" points="44.3,229.4 33,236.7 38.7,239.4 37,249.1 46.7,245.7 53,253.4 56,246.4 64.9,253.4 
	66.7,244.1 73.3,239.1 62,229.4 "/>
<radialGradient id="XMLID_4_" cx="151.1682" cy="243.3847" r="16.5936" gradientUnits="userSpaceOnUse">
	<stop  offset="0" style="stop-color:#FFFF00"/>
	<stop  offset="1" style="stop-color:#F15A24"/>
</radialGradient>
<polygon id="XMLID_45_" class="st5" points="142.3,231.4 131,238.7 136.7,241.4 135,251.1 144.7,247.7 151,255.4 154,248.4 
	162.9,255.4 164.7,246.1 171.3,241.1 160,231.4 "/>
</svg>
