<?xml version="1.0" encoding="utf-8"?>
<!-- Generator: Adobe Illustrator 19.0.0, SVG Export Plug-In . SVG Version: 6.00 Build 0)  -->
<svg version="1.1" id="Layer_1" xmlns="http://www.w3.org/2000/svg" xmlns:xlink="http://www.w3.org/1999/xlink" x="0px" y="0px"
	 viewBox="0 0 241.7 226.6" style="enable-background:new 0 0 241.7 226.6;" xml:space="preserve">
<style type="text/css">
	.st0{fill:#0071BC;}
	.st1{fill:#FCEE21;}
	.st2{fill:#00A99D;}
	.st3{fill:#FFFF00;}
	.st4{fill:#666666;}
	.st5{fill:#0000FF;}
</style>
<rect id="XMLID_241_" x="-226.3" y="417.4" class="st0" width="94" height="94"/>
<polygon id="XMLID_240_" points="-209.2,450.3 -203.5,460.8 -203.5,511.7 -209.2,511.7 "/>
<polygon id="XMLID_239_" points="-152.1,450.3 -157.9,460.8 -157.9,511.7 -152.1,511.7 "/>
<polygon id="XMLID_232_" points="-189.5,482.5 -189.5,482.5 -189.5,473.6 -154.6,409.4 -147.1,413.5 -182,477.8 "/>
<polygon id="XMLID_228_" class="st1" points="-520.3,158.2 -472.3,244.4 -564.3,244.4 -564.3,161.5 "/>
<rect id="XMLID_230_" x="404.7" y="-111.6" class="st2" width="72" height="72"/>
<polygon id="XMLID_229_" points="419.8,-86.4 424.2,-78.4 424.2,-39.3 419.8,-39.3 "/>
<polygon id="XMLID_59_" points="461.7,-86.4 457.3,-78.4 457.3,-39.3 461.7,-39.3 "/>
<polygon id="XMLID_58_" points="440.8,-49.6 440.8,-49.6 437.4,-55.6 437.4,-111.7 444.1,-111.7 444.1,-55.5 "/>
<path id="XMLID_233_" class="st0" d="M-372.5,126.7l38.2-21.1v8.8l-27.9,14.7l0,0l27.9,15.3v8.1l-38.2-21.1V126.7z"/>
<path id="XMLID_238_" class="st0" d="M-510.2,85.5l-38.2,21.1v-8.1l27.9-15.3l0,0l-27.9-14.7v-8.8l38.2,21.1V85.5z"/>
<path id="XMLID_235_" class="st0" d="M-334.3,161l23-63.9h9.6l-23.1,63.9H-334.3z"/>
<text id="XMLID_42_" transform="matrix(1 0 0 1 71.6684 433.6098)" style="font-family:'NeoSansStd-Bold'; font-size:89.8767px;">&lt;/&gt;</text>
<polygon id="XMLID_52_" points="-338.3,-111.7 -406.8,-111.7 -412.4,-143 -332.6,-143 "/>
<polygon id="XMLID_48_" class="st0" points="41.7,120.1 0,214.4 41.7,214.4 "/>
<polygon id="XMLID_99_" class="st0" points="199.7,120.1 241.7,214.4 199.7,214.4 "/>
<polygon id="XMLID_2_" class="st0" points="120.7,0 75.7,62.4 120.7,62.4 166.2,62.4 "/>
<rect id="XMLID_49_" x="-105.6" y="229.2" class="st3" width="17.3" height="7.5"/>
<rect id="XMLID_91_" x="-6.3" y="-203.6" class="st0" width="94" height="94"/>
<polygon id="XMLID_90_" points="13.5,-170.3 19.2,-159.9 19.2,-109 13.5,-109 "/>
<polygon id="XMLID_89_" points="67.9,-170.3 62.1,-159.9 62.1,-109 67.9,-109 "/>
<polygon id="XMLID_88_" points="40.7,-122.4 40.7,-122.4 36.4,-130.3 36.4,-203.3 45,-203.3 45,-130.1 "/>
<polygon id="XMLID_97_" class="st0" points="127.7,67.4 127.7,181.4 120.7,193.5 113.7,181.4 113.7,67.4 46.7,67.4 46.7,214.4 
	79.7,214.4 79.7,119.1 88.7,135.3 88.7,214.4 120.7,214.4 152.7,214.4 152.7,135.3 161.7,119.1 161.7,214.4 194.7,214.4 194.7,67.4 
	"/>
<polygon id="XMLID_96_" class="st0" points="261.7,-48.6 261.7,-69.5 254.7,-81.6 254.7,-195.6 187.7,-195.6 187.7,-48.6 
	220.7,-48.6 220.7,-143.9 229.7,-127.7 229.7,-48.6 "/>
<polygon id="XMLID_95_" class="st0" points="265.7,-48.6 265.7,-69.5 272.7,-81.6 272.7,-195.6 339.7,-195.6 339.7,-48.6 
	306.7,-48.6 306.7,-143.9 297.7,-127.7 297.7,-48.6 "/>
<polygon id="XMLID_14_" class="st4" points="76.6,226.6 49.8,226.6 46.7,214.4 79.7,214.4 "/>
<polygon id="XMLID_93_" class="st4" points="191.6,226.6 164.8,226.6 161.7,214.4 194.7,214.4 "/>
<polygon id="XMLID_98_" points="-71.6,188.8 -98.5,188.8 -101.5,176.7 -68.6,176.7 "/>
<rect id="XMLID_94_" x="-98.5" y="176.7" class="st5" width="26.8" height="12.2"/>
</svg>
