<?xml version="1.0" encoding="utf-8"?>
<!-- Generator: Adobe Illustrator 19.0.0, SVG Export Plug-In . SVG Version: 6.00 Build 0)  -->
<svg version="1.1" id="Layer_1" xmlns="http://www.w3.org/2000/svg" xmlns:xlink="http://www.w3.org/1999/xlink" x="0px" y="0px"
	 viewBox="0 0 94 94" style="enable-background:new 0 0 94 94;" xml:space="preserve">
<style type="text/css">
	.st0{fill:#0071BC;}
	.st1{fill:#FCEE21;}
	.st2{fill:#00A99D;}
</style>
<polygon id="XMLID_2_" class="st0" points="51,0 51,73.1 47,80.8 43,73 43,0 0,0 0,94 20,94 20,32.9 26,43.4 26,94 68,94 68,43.4 
	74,32.9 74,94 94,94 94,0 "/>
<polygon id="XMLID_228_" class="st1" points="-108.9,123.8 -61,210 -153,210 -153,127.1 "/>
<rect id="XMLID_230_" x="264" y="-32" class="st2" width="72" height="72"/>
<polygon id="XMLID_229_" points="279.2,-6.8 283.6,1.2 283.6,40.3 279.2,40.3 "/>
<polygon id="XMLID_59_" points="321,-6.8 316.6,1.2 316.6,40.3 321,40.3 "/>
<polygon id="XMLID_58_" points="300.1,30 300.1,30 296.8,24 296.8,-32.2 303.4,-32.2 303.4,24.1 "/>
<path id="XMLID_233_" d="M-104,43.8l52.1-28.7v8.3l-43.9,23.5v0.2l43.9,23.5v8.3L-104,50.2V43.8z"/>
<path id="XMLID_235_" d="M-46.4,90.5l31.3-87h7.6l-31.4,87H-46.4z"/>
<path id="XMLID_237_" d="M152.7,50.4l-52.1,28.6v-8.3l44.3-23.5v-0.2l-44.3-23.5v-8.3l52.1,28.6V50.4z"/>
</svg>
